<svg xmlns="http://www.w3.org/2000/svg" xmlns:xlink="http://www.w3.org/1999/xlink" xml:space="preserve" version="1.1" style="shape-rendering:geometricPrecision;text-rendering:geometricPrecision;image-rendering:optimizeQuality;" viewBox="0 0 181 222" x="0px" y="0px" fill-rule="evenodd" clip-rule="evenodd"><defs><style type="text/css">
   
    .fil0 {fill:black}
   
  </style></defs><g><path class="fil0" d="M55 112c0,0 -1,2 -2,2 -1,0 -2,0 -2,2 0,1 0,2 0,2 -1,1 -2,1 -1,3 0,0 0,0 0,0 0,1 1,3 0,3 0,1 0,1 -1,2 -1,0 -2,-1 -3,-2 -2,-2 -2,0 -3,1 0,0 0,-1 -1,-1 0,-1 0,-2 -2,-2l0 0c-1,1 -1,2 -2,2 0,0 -1,-1 -1,-1 0,-1 0,-3 -2,-3 -1,0 -2,1 -2,1 -1,0 -1,0 -1,-1l0 0c-1,0 -1,0 -2,-1 0,-1 -1,-1 -2,0 -1,1 -1,3 -3,4 0,0 0,0 0,-1 -1,0 0,-2 -3,-1 -1,0 -2,1 -2,-1 0,0 0,0 0,-1 0,-1 4,-2 3,-3 0,-2 -2,-1 -3,-1 -2,0 -4,0 -5,0 -1,0 -3,1 -3,0 -1,0 1,-1 1,-2 -1,-1 -3,0 -4,0 0,0 -2,1 -2,0 0,-2 2,-4 3,-5 1,0 1,0 2,0 1,0 3,1 4,0 1,-1 -1,-2 -1,-3 0,0 0,-1 1,-1 0,0 0,0 0,0 1,0 3,1 4,0 1,-1 0,-3 0,-4 0,0 0,0 0,0 1,-1 1,-1 2,-1 1,0 1,0 2,0 1,-1 2,-1 2,-1 0,0 -3,0 -3,0 -2,-1 -3,-4 -4,-1 -1,0 -1,0 -2,-1 -1,-2 -2,1 -4,1 -1,0 -2,1 -3,1 -1,1 -4,3 -5,1 -1,-3 2,-9 -1,-9l0 0c-1,0 -3,1 -4,0 0,-1 0,-4 1,-5 1,-1 2,-2 2,-3 0,-2 -1,-3 0,-5 0,-1 1,0 2,1 0,0 2,2 2,0 1,0 0,-2 1,-2 0,0 2,1 2,1 1,0 1,1 2,2 0,1 1,3 2,2 1,-1 1,-3 3,-1 0,0 1,2 2,2 0,0 0,0 0,0 1,0 1,-1 1,-2 1,-1 1,-1 2,-1 2,-1 2,1 3,3 1,0 2,0 2,-1 1,-1 1,-1 3,-1 -1,-1 -1,-3 -1,-5 -1,0 -2,0 -2,-1 -1,-1 -1,-1 -2,-1 0,1 -2,2 -2,1 -1,0 -1,-4 -4,-2 -1,1 -1,1 -2,1 -1,-1 1,-4 -1,-4 -1,0 -2,1 -3,1 -1,0 1,-3 0,-3 -2,0 -5,2 -6,0 -2,-2 1,-4 0,-6 0,-1 0,-2 0,-4 0,0 0,0 0,0 0,-4 3,-3 5,-3 3,1 4,-2 6,-2 3,1 4,4 6,3 1,0 2,0 2,0 2,1 2,4 3,3 1,0 1,-2 2,-3 0,-1 1,-2 2,-2 1,-1 1,-1 2,0 1,0 1,1 1,2 -1,0 -1,2 -1,3 0,0 2,-2 2,-2 1,0 2,-1 3,-1 0,1 0,1 0,2 0,0 -1,1 -1,2 -1,2 2,-1 2,-1 1,-1 2,0 3,1 1,0 1,1 1,2 0,0 -1,3 0,3 0,1 1,1 1,0 1,0 1,-2 2,-2 1,-1 2,0 2,1 1,0 2,1 2,0 1,-2 0,-3 1,-4l0 0c1,-1 2,-1 3,0 1,0 1,2 2,2 1,0 1,-1 1,-2 0,-1 1,-1 1,-1 1,0 1,0 1,0 2,1 1,2 2,3 1,2 2,-1 3,-1 0,-1 1,0 1,0 0,-1 0,-3 0,-4 0,0 -3,1 -4,1 -1,0 -1,0 -1,-1 -1,-1 -1,-2 -1,-2l0 0c-1,0 -2,1 -2,2 -1,0 -1,1 -2,1 0,0 -2,0 -2,-1 0,0 0,-1 0,-1 0,-1 -1,-2 -2,-2 0,1 -1,2 -2,3 0,1 -1,1 -2,1 -1,0 -2,0 -2,0 0,-1 0,-1 0,-1 0,-1 3,-2 3,-3 -1,-1 -3,-1 -4,-1 -1,0 -2,0 -2,-2 -1,-1 -1,-2 -1,-3 -3,0 -2,0 -5,1 -3,2 -4,1 -5,0 -1,-1 -1,-1 -2,0 -1,0 -2,2 -4,0 -1,0 -1,0 -2,0 -2,1 -4,1 -6,0 -2,-1 -1,-4 0,-6 1,-1 0,-1 -1,-2 -1,0 -3,0 -3,-1 -1,-1 2,-2 3,-2 0,0 1,0 1,-1 0,0 0,-1 0,-1 0,0 0,0 0,-1 0,-2 2,-2 4,-2 1,0 1,-1 1,-1 0,-1 -2,-3 -1,-4 2,-1 4,3 5,2 1,0 1,-1 1,-1 1,-1 1,-1 2,-1 1,0 1,-3 3,-2 1,0 1,3 3,3 1,0 2,1 3,1 1,0 2,0 4,0 -1,-1 -1,-1 -2,-2 0,-1 0,-1 -1,-1 -1,-1 -4,-1 -5,-2 0,-1 2,-1 3,-2 0,-1 -1,-1 0,-3l0 0c1,-3 7,0 8,-3 0,-1 0,-2 0,-3 2,-2 7,1 9,1 2,1 4,1 5,0l0 0c2,-2 1,-5 5,-2 1,0 2,1 3,1 1,0 2,-3 3,0 1,1 1,2 1,3 1,0 1,0 2,0 1,0 2,1 3,2 2,1 3,1 4,3 1,1 1,3 1,5l0 1c0,0 3,-1 3,-1 1,0 0,-1 0,-2 0,0 0,-1 1,-1 0,-1 2,1 2,1 1,1 3,2 4,3 2,0 3,0 4,-1 1,0 2,0 2,1 1,1 1,2 3,2 0,0 3,1 3,1 0,0 0,0 0,-1 -1,0 -3,0 -4,-1 0,-1 0,-2 -1,-2 -1,-2 -2,-1 -4,-1 -1,0 -1,-1 -2,-1 0,-1 0,-1 0,-2 0,-1 0,0 0,0 -2,0 -4,-1 -6,-1 0,0 -1,0 -1,-1 0,-1 1,-3 0,-3 -1,-1 -2,1 -2,1 -1,1 -2,2 -2,1 -1,0 -3,-1 -3,-2 -1,-1 2,-3 1,-3 -1,0 -3,1 -5,0 0,-1 -1,-1 -1,-2 -1,0 -1,0 -1,-1 -1,-1 -4,-2 -3,-4l1 0c1,-1 2,-1 3,-1 1,0 1,-1 1,-1 1,-1 1,-2 2,-2 1,1 2,4 3,3 0,0 1,-1 1,-1 0,-1 -1,-2 0,-4 1,-2 6,0 8,1 1,0 3,1 4,0 1,-1 1,-1 2,-2 2,0 5,2 6,3 2,2 2,2 4,1 3,-2 5,-4 7,0 0,2 0,2 2,3 1,0 1,0 1,0 3,1 0,3 -1,3 -2,1 -2,2 -4,1 -1,0 -2,0 -1,1 0,1 1,2 0,3 0,0 0,0 -1,1l0 0c2,1 3,1 5,0 2,-1 2,-2 3,-3 1,-1 2,0 3,1 0,0 0,0 1,0 1,0 2,0 2,1 1,1 -1,4 -1,4 0,1 0,1 1,1l0 0c1,-1 1,-2 2,-2 1,-2 1,-4 1,-5 0,-1 0,-3 1,-3 1,1 1,3 2,3 1,0 1,0 1,0 2,-1 3,-1 4,-1 1,1 2,1 2,1 4,2 5,-3 5,-2 0,1 0,2 1,2 1,1 2,0 3,0 1,0 1,0 2,-1 3,0 1,3 0,4 0,2 2,1 2,1 1,0 2,-1 2,0 0,0 0,1 0,1 0,3 2,2 3,2 2,-1 3,-1 5,-1 1,1 2,1 2,2l0 0c0,1 -3,2 -4,2 -2,1 1,2 -1,2 -2,0 -3,0 -3,2 0,1 0,1 -1,2 -1,0 -1,0 -1,0l0 0c2,1 4,1 6,1 1,-1 3,0 4,0 0,0 0,1 0,1 1,1 1,1 2,1 1,0 2,0 2,0 0,1 -3,2 0,3 1,0 2,1 2,1 0,1 -2,1 -3,1l0 0c-1,0 -3,-1 -3,0 -1,0 0,1 1,2 0,0 2,1 1,1 0,1 -2,1 -3,1 -1,0 -1,1 -1,2 1,1 1,1 0,2 1,0 2,0 4,0 0,0 1,1 1,1 1,1 1,1 1,1 1,0 2,-2 2,-3 1,-1 2,-2 3,-2 2,0 1,1 1,2 0,0 -1,2 -1,2 1,1 3,0 3,0 1,0 2,0 3,1 0,0 -1,1 -1,1 -1,1 -2,2 -1,2 1,1 4,-1 3,1 0,1 -1,2 -1,3 0,1 0,1 -1,1 -1,1 -2,2 0,2 1,0 5,0 5,2 0,0 -2,1 -2,1 -1,0 -2,0 -2,1 -3,0 -3,-1 -5,-2 -3,0 -2,2 -3,2 0,0 -1,1 -1,1 1,1 1,1 2,2 1,1 2,1 3,1 1,0 4,0 3,1 0,1 -2,2 -2,3 0,0 0,0 0,0l0 1c0,1 -1,1 -1,2 -1,1 0,2 -1,3 -1,0 -3,0 -3,1 0,1 0,1 -1,1 0,1 0,1 0,1 -2,0 -3,-1 -4,-1 -1,1 -1,2 -3,1 0,0 -1,-1 -2,-1 0,0 0,0 -1,1l0 0c-1,1 -2,0 -3,-1 -2,-2 -4,-2 -6,-2 -1,0 -1,0 -2,0 0,0 -1,0 0,1 0,0 2,0 3,0 2,0 3,1 4,3 0,0 0,1 0,1 0,1 -1,2 -2,2 -1,-1 -3,-3 -4,-2 0,0 0,1 0,1 0,-2 3,1 3,1 1,1 2,1 3,1 2,-1 3,-1 5,-1 1,0 1,-1 2,-1 2,0 4,0 5,0 1,-1 4,-1 5,-1 1,0 1,1 3,2l0 0c2,1 4,1 4,3 0,1 0,1 0,2 0,1 -1,2 0,3 1,3 3,5 3,7 1,3 -2,3 -3,3 -1,-1 -2,-1 -2,-1 -1,0 0,3 -2,3 -1,0 -3,-4 -4,-3 -1,1 0,2 0,2 0,1 1,3 0,3 -1,1 -3,-1 -4,0 0,0 0,0 -1,0 -1,1 -1,1 -2,1 -2,1 -2,-2 -4,-2 0,0 0,1 -1,0 -2,0 -1,-3 -3,-4 0,0 0,0 -1,0 0,0 -1,2 -3,1 -1,-1 -1,-3 -2,-4 -1,0 -1,0 -2,-1 -1,2 -3,3 -4,4 -1,1 -2,1 -2,2 -1,1 -2,1 -3,1 -1,-1 -2,0 -3,0 -1,0 -1,1 0,1 2,0 2,-1 4,0 1,0 1,0 3,0 1,-1 1,0 2,0l0 0c2,0 4,-1 5,0 0,1 0,1 1,2 0,0 1,1 1,1 1,1 2,0 3,1 1,0 0,2 0,2 -1,1 -1,2 0,2 1,1 3,1 2,2l0 0c0,1 -1,2 -1,2 0,1 0,1 0,2 0,0 0,0 -1,1 -1,0 -1,0 -2,0 -1,1 -1,0 -2,0 -1,0 -2,-1 -3,0 0,1 0,2 0,2 1,1 2,2 1,3 0,0 -2,0 -3,0 0,0 0,0 -1,1 -1,0 0,0 -1,1 -1,1 -2,-1 -3,-1 0,-1 -1,-3 -1,-3 -1,0 -1,2 -1,2 0,2 -1,2 -2,1 -1,-2 -1,-4 -1,-5 -1,-1 -1,-1 -2,-2 -2,2 -2,4 -4,7 -4,7 -8,11 -14,17 -6,5 -8,8 -9,15 -1,1 -1,2 -1,3 0,3 0,6 0,8 0,2 -1,3 -1,4 0,0 1,2 0,2 0,1 0,0 -1,0 0,-1 0,-4 0,-5 -1,-3 -1,-5 -1,-8 0,-1 0,-3 0,-4 0,-2 -1,-5 -2,-6 -1,-2 -3,-4 -5,-3 -1,0 -1,0 -3,1 0,0 -1,0 -1,0 0,0 0,1 1,0 2,0 2,-1 4,-1 1,0 3,2 4,3 1,2 1,5 1,7 0,3 0,6 0,10 0,1 0,3 1,5 1,2 1,2 3,4 0,0 0,0 0,1 1,0 1,1 1,2 1,1 1,2 2,2 1,2 3,3 5,3 6,2 12,1 18,4 3,1 5,2 7,4 3,2 4,0 7,0 1,0 2,0 2,0 4,0 7,1 11,3 3,2 4,4 9,6 2,0 4,1 6,2 1,0 6,2 6,2 0,0 -1,1 -1,1 -2,-1 -5,-2 -6,-2 -5,-2 -7,-2 -11,-5 -3,-2 -6,-4 -10,-5 -2,0 -5,1 -4,3 1,2 4,4 6,4 2,2 3,2 5,4 1,1 2,2 2,2l0 1c1,1 2,1 3,2 0,1 0,4 -3,0 -3,-4 -4,-6 -9,-7 -2,0 -3,-1 -4,-2 -2,-1 -2,-2 -4,-2 -2,-1 -3,0 -5,-2 -2,-1 -2,-1 -5,-2l0 0c-1,0 -2,0 -3,-1 -1,0 -2,0 -3,-1 -1,0 -1,0 -2,0 -2,0 -3,0 -5,0 -1,0 -3,0 -2,2 2,1 4,2 5,3 2,1 3,2 5,4 3,2 7,5 10,8 4,3 7,1 12,2 4,0 5,1 8,3 -3,0 -4,0 -7,0 -2,-1 -3,-1 -6,0 -2,1 -5,0 -7,0 -1,0 -1,0 -2,0 0,0 0,0 0,-1 -1,0 -2,-1 -3,-2l-1 0 0 0c-3,-2 -4,-4 -6,0 0,1 0,2 0,3l-2 0c-2,-3 -1,-5 -2,-9 -1,-2 -4,-2 -6,-3 -1,-1 -4,-2 -6,-1 -2,1 -1,4 0,6 1,2 2,4 2,6 1,1 1,1 0,0 -3,-1 -4,-1 -7,0 0,1 -1,1 -2,1 1,-3 -1,-4 -2,-6 -1,-2 -2,-3 -3,-4 -1,-1 -3,-2 -4,-3 -3,-3 -6,-4 -7,1 0,2 0,9 0,10 1,2 2,3 0,2 -4,-2 -4,-3 -8,-1 0,1 -1,1 -1,1 1,-2 0,-4 -1,-6 0,-1 0,-2 -1,-3 0,0 0,0 0,0 -2,-1 -5,3 -6,4 -1,2 -2,3 -2,5 -2,0 -2,0 -3,-1 0,-1 0,-2 1,-3 0,-2 1,-4 1,-5l0 -1c0,0 0,-1 1,-1 0,-1 1,-4 0,-5 -2,0 -5,2 -7,2 -4,1 -3,1 -6,4 -1,1 -2,1 -3,2 -2,3 -4,5 -5,8 0,0 0,0 -1,0 -3,0 -2,-2 -3,-3 -2,-1 -5,1 -7,2 -2,2 -4,1 -7,1 -4,0 -9,0 -13,0 3,-1 5,-2 9,-2 7,0 10,-2 16,-7 1,0 3,-1 4,-2 2,-2 2,-1 3,-4 1,-1 4,-3 6,-3 0,-1 1,-1 1,-1 0,0 1,0 1,-1 1,0 1,-1 0,-1 -2,2 -5,2 -7,2 -2,1 -3,1 -6,1 -1,0 -1,0 -2,0 -3,1 -6,2 -9,3 0,1 -1,1 -1,1l0 0c-1,1 0,1 -1,2 -3,1 -2,0 -4,1 -3,2 -5,3 -8,4 -2,1 -4,2 -6,3 0,0 -2,1 -2,1 -1,-1 3,-3 4,-3 4,-2 8,-4 11,-6 3,-2 1,-2 -1,-2 -2,0 -4,1 -6,1 -2,1 -4,1 -7,1 -1,1 -6,2 -7,2 0,0 -1,-1 0,-1 4,-1 7,-2 12,-3 4,-1 6,-2 10,-4 5,-2 9,-1 14,-3 2,-1 3,-2 5,-3 3,-1 5,-2 9,-3 1,0 2,0 2,0l1 0c0,0 1,0 1,0 3,-1 9,-2 11,-3 2,-1 4,-3 5,-5 1,-3 2,-6 2,-10 0,0 1,-3 1,-3 1,-1 2,0 2,1l0 0c1,2 1,2 1,4 1,1 1,2 2,2 1,0 1,0 2,0 0,1 0,1 0,1 2,1 2,-2 3,-3 0,0 1,-1 2,-1 1,-1 2,-3 2,-4 1,-2 1,-5 0,-7 0,-1 -1,-2 -1,-3 1,0 1,0 1,0 -1,0 -1,0 -1,1 0,1 1,2 1,4 0,2 0,5 -1,7 -1,1 -2,1 -3,2 -1,1 -1,2 -2,3 -1,2 -1,-1 -2,-1 0,0 -1,1 -2,-1 0,-2 0,-3 0,-4 -1,-2 -1,-3 -2,-4 0,-5 1,-3 2,-4 1,-1 0,-3 1,-5l0 0c0,-1 1,-3 2,-2 1,1 1,2 2,2 1,0 2,1 2,2 0,1 0,1 0,2 0,1 0,1 0,2 0,1 0,2 0,2 0,1 0,3 -1,4 -1,1 -2,0 -2,-1 0,0 -1,-3 -2,-2 0,0 1,0 1,0 0,1 1,4 2,4 1,0 1,-1 2,-2 1,-1 1,-3 1,-4 0,-1 0,-2 -1,-3 0,-1 0,-3 0,-3 0,-1 -1,-1 -2,-1 -1,-1 -1,-1 -1,-1 -1,-1 -1,-2 -2,-1 -1,0 -2,1 -2,2 -1,1 0,3 -1,4 0,1 -2,-1 -2,1 0,1 0,2 0,3 0,1 0,2 -1,2 0,0 0,-1 0,-1 0,-2 -1,-3 0,-5 0,0 -1,-2 0,-2 0,-1 0,-1 1,-2 0,-1 1,-2 1,-3 1,0 2,-1 2,-2 1,0 2,1 4,-1 0,0 1,0 1,0 2,2 2,4 4,5 1,1 1,1 2,2 0,1 1,2 1,3 0,2 1,4 1,5 -1,1 -1,4 -1,5 0,0 0,0 0,0 0,-1 0,-1 0,-2 1,-3 1,-3 1,-6 0,-1 -1,-3 -1,-5 -1,-1 -1,-2 -3,-2 -1,-1 -2,-2 -2,-3 -1,-2 -2,-4 -4,-3 0,0 -1,1 -2,1 -1,-1 -2,0 -3,1 -1,1 -1,1 -2,2 0,1 0,1 0,2 0,1 0,0 0,0 -1,-3 -1,-5 -2,-8 -3,-9 -10,-19 -15,-28 -1,-1 -2,-2 -2,-4 -1,0 -1,-1 -2,-2l0 0zm76 -13c0,-3 1,-7 1,-10 -1,0 -2,1 -3,2 -1,0 -1,-1 -1,-1 -1,-1 0,-3 0,-3 1,-1 3,0 4,-2 1,-1 2,-2 2,-2 0,-1 0,-1 0,-1 -1,0 -1,1 -1,1 -1,2 -2,3 -4,3 -3,0 -2,0 -4,2 -1,1 -1,1 0,2 0,2 0,3 -2,3 -2,0 -1,0 -2,1 -1,1 -3,0 -4,0 -1,-1 -1,0 -2,1 -1,1 -2,-1 -2,-1 -1,-1 -1,-2 -2,-2 0,5 0,9 0,14 0,1 1,1 2,2 0,1 -1,0 -1,0 -1,-1 -1,-2 0,-3 0,-1 1,-1 1,-2 1,0 1,-1 0,-2 0,-1 0,-2 1,-2 2,0 3,2 5,1 0,0 0,-1 0,-1 0,-1 1,-2 2,-2 1,0 2,2 4,2 0,0 1,-1 1,-2 0,-1 1,-2 2,-1 1,1 1,3 2,3 1,0 1,0 1,0zm-6 18c-1,0 -1,0 -3,0 -1,1 -2,1 -3,0 0,-2 0,-2 -1,-2 -2,-1 -3,-1 -4,-2 0,-1 -1,-1 -1,-2 0,-1 0,-1 0,-2 0,1 -1,2 -1,3 0,0 1,0 1,0 0,1 0,1 0,2 1,2 2,4 3,6 3,5 4,5 9,-3zm-93 -21c2,0 3,1 4,0 1,0 1,1 2,1 1,1 2,2 3,0 1,-1 1,-1 2,0l0 0c1,0 2,0 3,0l0 0c2,1 1,1 0,0 -2,-2 -3,-3 -5,-5 -1,0 -1,-1 -2,-1 -1,1 -1,1 -2,1 -2,0 -3,0 -2,2 0,1 0,1 -2,2 0,0 0,0 0,0l-1 0 0 0zm63 -13c0,-2 0,-2 2,-2 1,-1 1,-1 2,-1 1,0 2,0 3,1 0,0 1,1 2,1 0,0 0,0 0,0 0,0 -1,-1 -1,-1 -1,-1 -2,-2 -3,-2 -1,0 -1,0 -2,0 -2,0 -3,-1 -4,-2 0,0 -1,-1 -1,0 -2,0 -2,1 -4,1 0,-1 0,-1 0,0 1,1 1,1 1,1 1,1 1,2 1,3 0,0 0,0 0,0 1,0 2,0 3,1 0,0 0,0 1,0zm13 9c1,3 -1,6 -3,7 -1,1 -1,2 0,3 0,1 0,1 -1,2 -1,1 0,1 -1,3 0,1 -3,0 -4,-1 -1,0 -1,0 -2,1 -2,1 -2,-3 -3,-3 0,0 -1,0 -1,0l0 0c-1,14 -7,35 11,30 17,-4 0,-14 5,-42 0,0 -1,0 -1,0zm-21 12c-4,0 -3,0 -5,2 -1,1 -2,2 -2,0 -1,-1 -2,-1 -3,0 0,0 -1,0 -1,1 -1,0 -2,-1 -2,-2 0,-1 1,-2 0,-3 0,-1 -1,0 -1,0 -1,0 -2,1 -2,0 -1,-1 0,-3 -1,-4 -1,0 -1,-1 -1,-1 -9,14 -10,14 5,29 7,6 13,-21 13,-22zm-26 -8c-1,0 -1,-1 -2,-2 0,0 -1,-2 -1,-2l0 0c-1,-1 -2,0 -3,1 0,1 0,1 -2,1l0 0c1,2 2,8 5,9 2,1 6,-3 7,-5 1,0 1,-1 1,-2 1,-1 1,-1 2,-1 0,0 0,-1 0,-1 0,0 0,-1 0,-2 -1,1 -1,1 -2,0 -1,-1 -2,-1 -2,-1 -1,2 0,5 -2,6 0,0 -1,0 -1,-1zm13 -17c1,2 1,3 3,5 2,-1 5,-2 7,-2 1,0 2,0 3,0 -3,-1 -3,-2 -5,-2 -2,0 -3,-1 -3,-2 1,-1 1,-2 0,-2 -1,-1 -2,-1 -2,-2 0,-1 1,-2 1,-3 0,-1 0,-1 1,-2 1,0 2,-1 3,-1 0,-1 -1,-1 -1,-1 -1,0 -3,0 -5,0 0,0 1,3 0,3 0,1 -3,0 -3,2 0,1 0,2 -1,2 1,2 1,3 2,5zm73 -32c-1,0 -5,0 -5,0 -1,-1 0,-3 -1,-3 -1,-1 -4,2 -5,1 -1,-1 -2,-1 -2,-2l0 0c-1,1 -1,1 -2,1 2,1 2,1 3,2 2,0 4,-1 4,0 0,0 0,1 0,1 0,2 1,2 0,3 0,1 -1,1 -2,2 0,0 -2,1 -1,1 1,0 3,0 4,1 1,0 1,1 1,1 -1,2 -2,1 -3,2 -1,0 0,2 -1,2 -1,0 -3,0 -3,1 0,1 1,2 1,3 -1,1 -1,1 -1,1 -1,1 -2,1 -3,1 -2,0 -4,0 -5,1 -1,1 -1,1 -2,2 -1,0 -2,-1 -3,0 0,0 -2,2 -3,1 0,-1 0,-4 -1,-4 0,0 0,0 0,0 -1,0 -3,-1 -4,-1 0,0 0,0 0,0 -1,0 -2,0 -3,-1 1,1 1,1 2,2 1,1 3,0 3,3 0,0 0,1 1,1 0,1 0,1 0,1 0,1 0,1 -1,2 0,0 -1,0 -2,1 0,0 -1,1 -2,1 -1,0 -2,-1 -3,-1 -1,-1 -3,0 -4,0 0,0 -2,0 -3,0 0,1 0,1 1,1 1,0 3,0 4,0 1,0 2,0 3,0 0,1 2,2 3,2 1,0 2,-2 4,-1 1,0 1,0 3,-1 0,-1 1,-2 2,-1 1,1 1,2 1,2 0,0 1,-1 1,-1 1,0 1,0 2,-2 0,-1 0,-3 1,-2 1,0 2,1 3,1 0,0 1,0 1,0 1,0 1,-1 1,-2 1,-2 2,-1 3,0 1,1 2,2 4,2 0,0 0,0 0,0 -1,-1 -1,-2 -1,-4 0,-1 -2,-2 0,-4 1,0 2,0 2,-1 0,-1 0,-1 0,-2 1,-1 2,-1 3,0 1,0 1,0 2,0 0,0 1,0 1,-1l0 0c-2,-1 -3,-2 -3,-5 -1,-1 -2,-1 -1,-2 1,-1 1,-1 2,-2 1,-1 2,-2 4,-3zm-2 47c0,-2 0,-4 0,-6 -1,1 -2,1 -3,2 -1,0 -1,0 -1,1 -1,2 -2,1 -3,0 -1,-1 -1,-1 -2,-2 0,0 0,0 0,0 0,4 0,10 5,8 1,-1 3,-2 4,-3zm-91 -18c-1,0 -2,0 -2,0 -1,-1 0,-3 -3,-3 -2,1 -2,1 -3,-1 -1,0 -1,0 -2,-1 0,0 -1,1 -1,1 -1,0 -2,-2 -3,-2 -1,1 -1,2 -1,3 0,1 -1,1 -2,1 -1,1 -2,-2 -4,-2 -1,1 0,3 -2,3 0,0 0,0 0,0 0,2 1,5 1,6 2,0 2,0 3,-1 1,0 2,-1 3,0 0,1 -1,2 -1,3 1,1 1,2 0,3 0,1 1,1 2,2 0,0 0,0 0,1 3,1 6,2 8,3 -1,0 -3,-2 -4,-3 0,0 0,-1 0,-1 2,-2 1,-2 -1,-3 0,-1 -1,-1 0,-2 1,-2 2,-2 3,-1 2,0 0,-2 3,-2 1,-1 1,-1 2,-2 0,-1 1,-1 1,-1 1,0 2,0 3,-1l0 0zm71 -48c0,0 0,1 -1,1 1,0 2,1 2,1 1,1 0,2 0,2 0,1 0,2 1,1 0,-1 2,-2 3,-2 1,0 1,0 2,0 2,-1 3,-1 3,1 0,0 0,0 1,0 -1,-1 -1,-2 -3,-2 0,0 -2,0 -2,0 0,-1 0,-1 -1,-1 0,0 -1,0 -1,1 -2,0 -1,-1 -3,-1l0 0 0 0c0,-1 0,-1 -1,-1zm-25 14c-1,1 1,3 -1,4 -1,0 -2,0 -2,0 -2,1 -2,2 -4,3 -1,0 -1,-1 -1,-1 -1,-1 -1,-1 -1,-1 0,0 -2,0 -2,0 -2,0 -2,0 -3,1 -1,1 -2,3 -3,2 0,-1 -1,-2 -1,-3 -1,0 -2,-1 -2,-1 0,-1 0,-1 1,-1 0,-1 1,0 2,0 2,0 5,-1 6,-2 1,0 4,-2 4,-2 0,0 0,0 -1,0 -1,0 -3,1 -4,1 -1,1 -4,2 -5,2 -1,-1 -2,-2 -4,-2 -1,0 -2,2 -3,1 0,0 -1,-1 -1,-1 -1,-1 -1,-2 -2,-3 -1,-1 -1,-2 -1,-4 -1,0 -3,0 -3,0 -1,0 -1,-3 -3,-3 -1,0 -1,4 -2,4 -1,0 -1,0 -2,0l0 0c-1,-1 0,-3 -1,-4 -1,0 -1,1 -1,2 -1,1 -2,3 -3,1 -1,-1 -1,-3 -2,-4 -1,-1 -1,1 -1,2 0,0 -1,1 -1,1 -1,0 -1,-1 -3,-1 -1,1 -1,1 -2,2 -2,1 -5,-1 -5,0 -1,0 1,0 1,1 1,0 3,0 4,0 1,-1 2,-1 3,-1 1,1 1,2 3,2 1,0 1,1 1,2 2,0 3,0 4,1 1,0 1,0 2,0 1,0 1,1 1,2 1,3 2,0 3,-1 1,-1 2,-2 3,-2 0,0 1,0 1,1 0,1 -1,2 0,2 0,0 1,0 1,-1 1,0 2,-1 3,0 0,1 1,1 1,2 0,1 -3,2 -2,3 1,1 4,0 4,2l0 0c0,1 0,2 0,2 1,0 3,-1 4,0 2,1 3,4 6,2 0,-1 1,-2 2,-2 2,0 2,3 3,3 1,0 1,-3 2,-3 0,0 2,-1 2,0 1,0 0,2 0,2 0,3 1,2 3,2 2,-1 0,0 1,1 0,0 0,0 0,-1 1,-1 4,-1 4,-2 0,-1 -3,-2 -3,-2 -1,0 -2,0 -2,-1 0,-1 1,-1 1,-1 1,0 2,-1 3,0 2,0 3,2 3,-1 0,-1 0,-2 1,-2 0,0 2,-1 2,-1 1,0 2,2 3,2 1,2 3,2 5,2 0,0 1,0 0,0 0,-1 -2,-1 -3,-1 -1,0 -2,-1 -3,-2 0,-1 -1,-2 -3,-2 0,0 0,0 -1,0 0,0 0,0 0,0 -1,0 -1,1 -2,1 -1,0 -3,-3 -4,-2l0 0zm0 15c0,1 0,3 0,4 2,0 4,0 5,1 -2,-2 -4,-3 -5,-5zm-29 22c-1,-1 -2,-2 -2,-3 -2,0 -3,-2 -4,-2 0,1 0,2 -1,3 1,0 1,-1 2,0 1,1 2,1 2,1 1,0 2,1 3,1l0 0 0 0 0 0z"/></g></svg>